<svg width="363" height="149" viewBox="0 0 363 149" fill="none" xmlns="http://www.w3.org/2000/svg">
<path fill-rule="evenodd" clip-rule="evenodd" d="M75.8852 1.62821C75.0895 2.43954 73.856 5.22492 73.1434 7.8191C72.4319 10.4122 71.3352 12.9558 70.7078 13.4715C70.0804 13.9873 63.41 15.182 55.8841 16.1267C30.3083 19.3369 6.33084 25.1546 1.36933 29.3539C-1.31465 31.6256 1.88727 32.3078 5.37705 30.2076C7.30692 29.0469 13.4178 26.9282 18.9561 25.5019C29.9657 22.6648 67.5941 17.3339 69.2482 18.3757C69.83 18.7426 69.9952 20.4324 69.6273 22.2587C67.8373 31.1543 63.7668 56.4378 62.9508 63.7335C62.0761 71.5615 61.1142 78.4056 57.3812 103.366C55.0489 118.962 53.8296 134.89 54.8847 135.98C56.322 137.465 57.7825 132.726 58.8346 123.162C59.3668 118.33 60.7503 108.098 61.9089 100.424C63.0684 92.7501 64.9101 79.495 66.0017 70.9683C70.9217 32.5548 73.2489 18.9338 75.0916 17.7731C76.7832 16.7075 104.698 14.7366 157.75 11.9367C171.339 11.2194 175.487 10.3802 175.487 8.34724C175.487 7.55348 174.086 7.37571 171.18 7.79946C168.81 8.1457 150.224 9.35287 129.876 10.4825C109.528 11.6122 88.8895 12.838 84.0111 13.2049C73.8479 13.9707 73.557 13.6503 77.1319 5.62077C79.1277 1.13624 78.4617 -0.999046 75.8852 1.62821ZM197.353 7.66407C194.234 14.4606 191.719 24.4115 184.62 58.0491C184.08 60.6071 183.34 65.258 182.975 68.3844C182.61 71.5109 181.94 74.8068 181.487 75.7081C180.733 77.2067 173.889 80.3425 156.229 87.2785C145.187 91.6153 131.596 94.6342 128.233 93.4974C125.582 92.6002 125.286 92.0204 125.009 87.1649C124.628 80.5223 123.759 80.4035 112.365 85.4378C103.461 89.3725 101.495 89.7787 101.495 87.6847C101.495 84.8094 113.712 76.6527 118.018 76.6527C119.031 76.6527 119.578 76.1877 119.233 75.6192C118.073 73.7041 113.186 74.5846 107.935 77.6563C101.94 81.161 98.4547 85.1887 98.4547 88.6077C98.4547 92.6199 101.703 92.563 111.136 88.3855C118.289 85.2177 120.039 84.7764 120.757 85.9598C121.239 86.7556 121.406 87.7819 121.128 88.2397C120.073 89.9813 122.033 93.2762 125.078 94.8813C131.282 98.1534 146.986 94.5629 168.184 85.0254C180.636 79.4237 180.99 79.4516 180.142 85.9722C179.213 93.1129 180.759 93.4322 190.686 88.1498C199.727 83.3387 202.854 82.7868 202.854 86.0011C202.854 88.8712 207.282 93.1894 210.225 93.1894C214.39 93.1894 226.416 89.4914 233.556 86.0156C240.471 82.6493 243.398 82.4674 243.398 85.4058C243.398 87.969 248.733 87.3127 256.185 83.8327C263.582 80.3776 265.697 80.4665 265.697 84.2307C265.697 85.5929 266.899 87.9328 268.368 89.4314C273.445 94.6084 281.976 93.0106 310.585 81.5259C319.386 77.9932 327.824 74.042 329.337 72.747L332.087 70.3916L328.032 72.0328C306.517 80.7414 300.405 83.0989 292.169 85.8626C281.587 89.4149 271.901 90.1466 269.79 87.5535C269.118 86.7277 268.72 84.2854 268.906 82.1274C269.242 78.232 269.218 78.2041 265.599 78.3064C263.595 78.3643 258.675 79.9518 254.668 81.8359C249.963 84.0477 247.031 84.9056 246.397 84.2586C244.141 81.9579 257.146 72.5186 262.574 72.5186C263.801 72.5186 264.521 72.0545 264.176 71.4851C262.736 69.1089 256.977 70.7957 245.191 77.0486C229.491 85.3769 219.93 89.0211 212.968 89.3291L207.495 89.572L206.89 85.9195C206.558 83.9103 205.943 81.7016 205.524 81.0101C203.757 78.0966 196.383 80.5202 187.995 86.7721C186.129 88.1622 184.535 88.7338 184.175 88.1395C183.21 86.5478 185.246 78.7911 187.209 76.5783C188.234 75.4239 188.486 74.5857 187.807 74.5857C185.887 74.5857 186.448 68.3183 189.769 52.6612C191.491 44.5397 193.468 35.1045 194.162 31.6938C195.829 23.4927 198.618 15.0714 201.074 10.8277C202.169 8.93636 202.804 6.69461 202.484 5.84711C201.503 3.23743 198.973 4.13351 197.353 7.66407ZM352.865 46.2047C352.865 46.5117 354.69 48.5322 356.919 50.6954C362.994 56.5876 362.137 62.1894 353.665 72.0049C328.621 101.015 244.206 127.929 141.532 139.637C111.434 143.069 50.6286 146.843 24.2095 146.92C21.561 146.927 19.395 147.398 19.395 147.967C19.395 150.002 65.2496 148.632 107.07 145.35C210.547 137.226 297.87 115.057 340.252 86.151C362.472 70.9952 368.643 57.1313 357.458 47.4894C355.474 45.7799 352.865 45.0502 352.865 46.2047Z" fill="#D4AF37"/>
<path d="M339.157 37.4118C336.157 38.8885 338.171 35.5111 340 35.0233C342.92 34.2461 345.536 38.1505 346.157 38.8885C355.5 50 340.731 36.6369 339.157 37.4118Z" fill="#D4AF37"/>
</svg>
